<?xml version="1.0" encoding="UTF-8" standalone="no"?>
<svg width="309px" height="118px" viewBox="0 0 309 118" version="1.1" xmlns="http://www.w3.org/2000/svg" xmlns:xlink="http://www.w3.org/1999/xlink">
    <!-- Generator: Sketch 43.2 (39069) - http://www.bohemiancoding.com/sketch -->
    <title>Slice</title>
    <desc>Created with Sketch.</desc>
    <defs></defs>
    <g id="Page-1" stroke="none" stroke-width="1" fill="none" fill-rule="evenodd">
        <g id="LOGO---ethoca_wordmark_375C-(Logo)" transform="translate(29.000000, 27.000000)" fill="#8CC24A">
            <path d="M136.314,56.891 C130.221,56.977 125.209,51.994 125.121,45.764 C125.034,39.533 129.903,34.412 135.998,34.327 C142.093,34.242 147.103,39.224 147.19,45.454 C147.277,51.685 142.41,56.805 136.314,56.891 Z M135.898,27.22 C125.965,27.359 118.026,35.705 118.169,45.861 C118.312,56.018 126.48,64.138 136.414,63.998 C146.349,63.859 154.286,55.513 154.144,45.356 C154.001,35.201 145.833,27.08 135.898,27.22 L135.898,27.22 Z" id="Fill-1"></path>
            <path d="M17.988,34.326 C22.671,34.326 26.662,37.312 28.266,41.52 L7.712,41.52 C9.315,37.312 13.306,34.326 17.988,34.326 Z M35.842,47.811 C35.928,47.088 35.978,46.354 35.978,45.609 C35.978,35.452 27.924,27.218 17.988,27.218 C8.054,27.218 0,35.452 0,45.609 C0,55.766 8.054,64 17.988,64 C25.758,64 32.019,60.174 35.088,54.521 L26.115,54.521 C24.247,56.006 22.084,56.892 17.988,56.892 C12.627,56.892 8.163,52.981 7.165,47.801 L35.842,47.811 L35.842,47.811 Z" id="Fill-3"></path>
            <path d="M185.571,54.486 C183.696,55.991 181.334,56.892 178.765,56.892 C172.67,56.892 167.729,51.84 167.729,45.609 C167.729,39.378 172.67,34.326 178.765,34.326 C181.523,34.326 184.044,35.363 185.978,37.074 L194.698,37.074 C191.689,31.216 185.686,27.218 178.765,27.218 C168.83,27.218 160.776,35.452 160.776,45.609 C160.776,55.766 168.83,64 178.765,64 C185.551,64 191.456,60.157 194.521,54.486 L185.571,54.486" id="Fill-4"></path>
            <path d="M94.765,27.218 C91.071,27.218 87.486,28.51 84.498,30.594 L84.498,0.863 L77.479,3.413 L77.479,63.995 L84.498,63.995 L84.498,40.617 C86.437,36.894 90.426,34.326 94.765,34.326 C100.716,34.326 104.944,37.717 105.309,44.978 L105.309,63.967 L111.601,63.967 L111.601,45.135 C111.601,34.979 104.7,27.218 94.765,27.218" id="Fill-5"></path>
            <path d="M219.187,56.892 C213.093,56.892 208.151,51.84 208.151,45.609 C208.151,39.378 213.093,34.326 219.187,34.326 C225.282,34.326 230.223,39.378 230.223,45.609 C230.223,51.84 225.282,56.892 219.187,56.892 Z M231.264,27.763 L231.264,32.007 C228.069,29.041 223.842,27.218 219.187,27.218 C209.253,27.218 201.198,35.452 201.198,45.609 C201.198,55.766 209.253,64 219.187,64 C223.842,64 228.069,62.177 231.264,59.211 L231.264,63.995 L238.282,63.995 L238.282,30.313 L231.264,27.763 L231.264,27.763 Z" id="Fill-6"></path>
            <polyline id="Fill-7" points="70.381 27.591 56.879 27.591 56.879 10.895 49.953 13.41 49.953 27.591 42.48 27.591 42.48 33.871 49.953 33.871 49.953 63.995 56.879 63.995 56.879 33.871 70.381 33.871 70.381 27.591"></polyline>
            <path d="M251.556,34.835 L251.352,31.773 C251.325,31.378 251.352,30.893 251.339,30.396 L251.3,30.396 C251.173,30.868 251.02,31.403 250.866,31.85 L249.808,34.771 L249.221,34.771 L248.188,31.773 C248.061,31.365 247.933,30.868 247.817,30.396 L247.779,30.396 C247.767,30.88 247.779,31.314 247.754,31.773 L247.563,34.835 L246.823,34.835 L247.218,29.758 L248.226,29.758 L249.221,32.513 C249.349,32.896 249.45,33.317 249.578,33.789 L249.604,33.789 C249.719,33.317 249.833,32.871 249.961,32.5 L250.956,29.758 L251.951,29.758 L252.333,34.835 L251.556,34.835 Z M246.645,29.758 L246.645,30.409 L245.088,30.409 L245.088,34.835 L244.322,34.835 L244.322,30.409 L242.779,30.409 L242.779,29.758 L246.645,29.758 L246.645,29.758 Z" id="Fill-8"></path>
        </g>
    </g>
</svg>